<?xml version="1.0" encoding="iso-8859-1"?>
<!-- Generator: Adobe Illustrator 18.0.0, SVG Export Plug-In . SVG Version: 6.00 Build 0)  -->
<!DOCTYPE svg PUBLIC "-//W3C//DTD SVG 1.1//EN" "http://www.w3.org/Graphics/SVG/1.1/DTD/svg11.dtd">
<svg version="1.1" id="Capa_1" xmlns="http://www.w3.org/2000/svg" xmlns:xlink="http://www.w3.org/1999/xlink" x="0px" y="0px"
	 viewBox="0 0 301.617 301.617" style="enable-background:new 0 0 301.617 301.617;" xml:space="preserve">
<g>
	<path d="M272.455,111.216H229.51c-1.232,6.214-3.847,12.173-7.836,17.318c-4.493,5.795-36.072,46.528-40.702,52.5
		c-7.806,10.069-20.072,16.08-32.812,16.08c-12.74,0-25.006-6.011-32.812-16.08c-4.629-5.971-36.209-46.705-40.701-52.5
		c-3.989-5.145-6.604-11.104-7.836-17.318h-37.65c-8.284,0-15,6.716-15,15v160.401c0,8.284,6.716,15,15,15h243.293
		c8.284,0,15-6.716,15-15V126.216C287.455,117.932,280.739,111.216,272.455,111.216z M242.238,269.25c-8.284,0-15-6.716-15-15
		c0-8.284,6.716-15,15-15c8.284,0,15,6.716,15,15C257.238,262.534,250.523,269.25,242.238,269.25z M184.087,239.25
		c8.284,0,15,6.716,15,15c0,8.284-6.716,15-15,15c-8.284,0-15-6.716-15-15C169.087,245.966,175.803,239.25,184.087,239.25z"/>
	<path d="M66.403,13.745c18.865,10.926,33.915,27.699,42.694,47.833c4.08,9.357,6.807,19.437,7.926,30h-9.564
		c-4.396,0-8.408,2.502-10.342,6.449c-1.934,3.947-1.453,8.651,1.24,12.125l40.702,52.5c2.182,2.814,5.542,4.461,9.102,4.461
		s6.921-1.647,9.102-4.461l40.702-52.5c2.693-3.474,3.174-8.178,1.24-12.125c-1.934-3.947-5.947-6.449-10.342-6.449h-11.522
		c-1.119-10.562-3.844-20.644-7.923-30C153.617,25.337,117.481,0,75.42,0c-1.938,0-3.864,0.054-5.776,0.16
		c-3.217,0.179-5.935,2.45-6.682,5.584C62.214,8.878,63.614,12.13,66.403,13.745z"/>
</g>
<g>
</g>
<g>
</g>
<g>
</g>
<g>
</g>
<g>
</g>
<g>
</g>
<g>
</g>
<g>
</g>
<g>
</g>
<g>
</g>
<g>
</g>
<g>
</g>
<g>
</g>
<g>
</g>
<g>
</g>
</svg>
